<?xml version="1.0" encoding="utf-8"?>
<!-- Generator: Adobe Illustrator 23.0.1, SVG Export Plug-In . SVG Version: 6.00 Build 0)  -->
<svg version="1.1" id="vhs_x5F_GB_x5F_logo_x5F_RGB_x5F_pos_x5F_hor"
	 xmlns="http://www.w3.org/2000/svg" xmlns:xlink="http://www.w3.org/1999/xlink" x="0px" y="0px" viewBox="0 0 428.58 100.5"
	 style="enable-background:new 0 0 428.58 100.5;" xml:space="preserve">
<style type="text/css">
	.st0{fill:none;stroke:#1D1D1B;stroke-width:0.5;stroke-miterlimit:10;}
	.st1{fill:#00285A;}
	.st2{fill:#E1000F;}
	.st3{fill:#64B9E6;}
	.st4{fill:#1E73AF;}
	.st5{fill:#8C0A23;}
	.st6{fill:#FAB90F;}
	.st7{fill:#EB640F;}
	.st8{fill:#285082;}
	.st9{fill:#E19100;}
</style>
<line id="Pipe" class="st0" x1="232.58" y1="16.49" x2="232.58" y2="84.01"/>
<path class="st1" d="M260.41,49.68V47.5l7.85-0.01v6.88c-1.2,0.96-2.45,1.69-3.73,2.17c-1.28,0.48-2.6,0.73-3.94,0.73
	c-1.82,0-3.47-0.39-4.96-1.17c-1.48-0.78-2.61-1.91-3.37-3.39c-0.76-1.47-1.14-3.12-1.14-4.94c0-1.81,0.38-3.49,1.13-5.05
	c0.75-1.57,1.84-2.73,3.26-3.49s3.05-1.14,4.89-1.14c1.34,0,2.55,0.21,3.63,0.65c1.08,0.44,1.93,1.04,2.55,1.81
	c0.62,0.77,1.08,1.79,1.4,3.04l-2.21,0.6c-0.28-0.94-0.62-1.69-1.03-2.22c-0.42-0.54-1-0.97-1.77-1.3
	c-0.77-0.32-1.62-0.48-2.55-0.48c-1.12,0-2.09,0.17-2.91,0.51c-0.82,0.34-1.48,0.79-1.98,1.34c-0.5,0.56-0.89,1.17-1.17,1.83
	c-0.47,1.15-0.71,2.39-0.71,3.73c0,1.65,0.28,3.04,0.85,4.15c0.57,1.12,1.4,1.94,2.49,2.48c1.09,0.54,2.24,0.81,3.47,0.81
	c1.06,0,2.1-0.2,3.11-0.61c1.01-0.41,1.78-0.85,2.3-1.31v-3.45H260.41z"/>
<path class="st1" d="M271.56,56.95V43.52h2.05v2.04c0.52-0.95,1.01-1.58,1.45-1.88s0.93-0.46,1.46-0.46c0.77,0,1.55,0.24,2.34,0.73
	l-0.79,2.11c-0.56-0.33-1.12-0.49-1.67-0.49c-0.5,0-0.95,0.15-1.34,0.45c-0.4,0.3-0.68,0.71-0.85,1.25
	c-0.26,0.81-0.38,1.69-0.38,2.65v7.03L271.56,56.95L271.56,56.95z"/>
<path class="st1" d="M289.02,56.95v-1.98c-1.05,1.52-2.47,2.28-4.26,2.28c-0.79,0-1.53-0.15-2.22-0.46c-0.69-0.3-1.2-0.69-1.53-1.14
	c-0.34-0.46-0.56-1.02-0.7-1.69c-0.09-0.44-0.14-1.16-0.14-2.12v-8.32h2.28v7.45c0,1.19,0.05,1.99,0.14,2.41
	c0.14,0.6,0.45,1.07,0.91,1.41c0.46,0.34,1.03,0.51,1.72,0.51c0.69,0,1.32-0.17,1.92-0.52s1.02-0.83,1.27-1.43
	c0.25-0.6,0.38-1.48,0.38-2.62v-7.2h2.28v13.43C291.07,56.95,289.02,56.95,289.02,56.95z"/>
<path class="st1" d="M294.61,56.95V43.52h2.05v1.91c0.99-1.48,2.41-2.21,4.27-2.21c0.81,0,1.55,0.15,2.23,0.44
	c0.68,0.29,1.19,0.67,1.53,1.14c0.34,0.47,0.57,1.03,0.71,1.68c0.08,0.42,0.13,1.16,0.13,2.21v8.26h-2.28v-8.16
	c0-0.93-0.09-1.62-0.27-2.08c-0.17-0.46-0.49-0.83-0.94-1.1c-0.45-0.28-0.98-0.41-1.59-0.41c-0.97,0-1.81,0.31-2.51,0.93
	c-0.71,0.62-1.05,1.78-1.05,3.5v7.34C296.88,56.95,294.61,56.95,294.61,56.95z"/>
<path class="st1" d="M317.73,56.95v-1.7c-0.85,1.33-2.1,2-3.76,2c-1.07,0-2.06-0.3-2.96-0.89c-0.9-0.59-1.59-1.41-2.09-2.47
	c-0.49-1.05-0.74-2.27-0.74-3.65c0-1.34,0.22-2.55,0.67-3.65c0.45-1.09,1.12-1.93,2.01-2.51c0.89-0.58,1.89-0.87,3-0.87
	c0.81,0,1.53,0.17,2.16,0.51c0.63,0.34,1.15,0.79,1.55,1.34v-6.65h2.26v18.54h-2.11V56.95z M310.54,50.25c0,1.72,0.36,3,1.09,3.86
	c0.73,0.85,1.58,1.28,2.57,1.28c0.99,0,1.84-0.41,2.53-1.22c0.7-0.81,1.04-2.06,1.04-3.72c0-1.84-0.36-3.18-1.06-4.04
	c-0.71-0.86-1.58-1.29-2.62-1.29c-1.01,0-1.85,0.42-2.53,1.24C310.88,47.17,310.54,48.47,310.54,50.25z"/>
<path class="st1" d="M325.52,56.95h-2.11V38.41h2.28v6.61c0.96-1.2,2.19-1.81,3.68-1.81c0.83,0,1.61,0.17,2.34,0.5
	c0.74,0.34,1.34,0.8,1.82,1.4c0.48,0.6,0.85,1.33,1.12,2.18c0.27,0.85,0.4,1.76,0.4,2.73c0,2.3-0.57,4.08-1.71,5.33
	c-1.14,1.26-2.51,1.88-4.1,1.88c-1.59,0-2.83-0.66-3.73-1.99L325.52,56.95L325.52,56.95z M325.5,50.14c0,1.61,0.22,2.77,0.66,3.49
	c0.72,1.17,1.69,1.76,2.91,1.76c0.99,0,1.85-0.43,2.58-1.3c0.73-0.87,1.09-2.15,1.09-3.86c0-1.75-0.35-3.05-1.04-3.88
	c-0.7-0.83-1.54-1.25-2.52-1.25c-0.99,0-1.85,0.43-2.58,1.3C325.86,47.25,325.5,48.5,325.5,50.14z"/>
<path class="st1" d="M337.84,41.03v-2.61h2.28v2.61H337.84z M337.84,56.95V43.52h2.28v13.43C340.12,56.95,337.84,56.95,337.84,56.95
	z"/>
<path class="st1" d="M343.53,56.95V38.41h2.28v18.54L343.53,56.95L343.53,56.95z"/>
<path class="st1" d="M358.05,56.95v-1.7c-0.85,1.33-2.1,2-3.76,2c-1.07,0-2.06-0.3-2.96-0.89c-0.9-0.59-1.59-1.41-2.09-2.47
	c-0.49-1.05-0.74-2.27-0.74-3.65c0-1.34,0.22-2.55,0.67-3.65c0.45-1.09,1.12-1.93,2.01-2.51c0.89-0.58,1.89-0.87,3-0.87
	c0.81,0,1.53,0.17,2.16,0.51c0.63,0.34,1.15,0.79,1.55,1.34v-6.65h2.26v18.54h-2.11V56.95z M350.85,50.25c0,1.72,0.36,3,1.09,3.86
	s1.58,1.28,2.57,1.28c0.99,0,1.84-0.41,2.53-1.22c0.7-0.81,1.04-2.06,1.04-3.72c0-1.84-0.36-3.18-1.06-4.04
	c-0.71-0.86-1.58-1.29-2.62-1.29c-1.01,0-1.85,0.42-2.53,1.24C351.19,47.17,350.85,48.47,350.85,50.25z"/>
<path class="st1" d="M372.54,56.95v-1.98c-1.05,1.52-2.47,2.28-4.26,2.28c-0.79,0-1.53-0.15-2.22-0.46c-0.69-0.3-1.2-0.69-1.53-1.14
	c-0.34-0.46-0.56-1.02-0.7-1.69c-0.09-0.44-0.14-1.16-0.14-2.12v-8.32h2.28v7.45c0,1.19,0.05,1.99,0.14,2.41
	c0.14,0.6,0.45,1.07,0.91,1.41c0.46,0.34,1.03,0.51,1.72,0.51s1.32-0.17,1.92-0.52c0.6-0.35,1.02-0.83,1.27-1.43
	c0.25-0.6,0.38-1.48,0.38-2.62v-7.2h2.28v13.43C374.59,56.95,372.54,56.95,372.54,56.95z"/>
<path class="st1" d="M378.14,56.95V43.52h2.05v1.91c0.99-1.48,2.41-2.21,4.27-2.21c0.81,0,1.55,0.15,2.23,0.44
	c0.68,0.29,1.19,0.67,1.53,1.14c0.34,0.47,0.57,1.03,0.71,1.68c0.08,0.42,0.13,1.16,0.13,2.21v8.26h-2.28v-8.16
	c0-0.93-0.09-1.62-0.27-2.08c-0.17-0.46-0.49-0.83-0.94-1.1c-0.45-0.28-0.98-0.41-1.59-0.41c-0.97,0-1.81,0.31-2.51,0.93
	c-0.71,0.62-1.05,1.78-1.05,3.5v7.34C380.41,56.95,378.14,56.95,378.14,56.95z"/>
<path class="st1" d="M392.13,58.06l2.21,0.33c0.09,0.69,0.35,1.18,0.77,1.49c0.56,0.42,1.34,0.63,2.31,0.63
	c1.05,0,1.87-0.21,2.44-0.63c0.57-0.42,0.96-1.01,1.16-1.77c0.12-0.46,0.17-1.44,0.17-2.92c-0.99,1.17-2.24,1.76-3.72,1.76
	c-1.85,0-3.28-0.67-4.29-2c-1.01-1.33-1.52-2.93-1.52-4.79c0-1.28,0.23-2.47,0.7-3.55c0.46-1.08,1.14-1.92,2.02-2.51
	c0.88-0.59,1.91-0.89,3.1-0.89c1.59,0,2.89,0.64,3.92,1.92v-1.62h2.1v11.61c0,2.09-0.21,3.57-0.64,4.45
	c-0.42,0.87-1.1,1.57-2.02,2.07c-0.92,0.5-2.06,0.76-3.41,0.76c-1.6,0-2.9-0.36-3.88-1.08C392.57,60.6,392.1,59.51,392.13,58.06z
	 M394.01,49.99c0,1.76,0.35,3.05,1.05,3.86s1.58,1.22,2.63,1.22c1.05,0,1.92-0.4,2.63-1.21c0.71-0.81,1.06-2.07,1.06-3.79
	c0-1.65-0.36-2.88-1.1-3.72c-0.73-0.83-1.61-1.25-2.63-1.25c-1.01,0-1.87,0.41-2.58,1.23C394.37,47.16,394.01,48.38,394.01,49.99z"
	/>
<path class="st1" d="M60.62,34.22c0.26-0.93-0.48-1.99-1.56-1.99H50.8c-0.65,0-1.3,0.42-1.55,1.17l-6.35,21.85
	c-0.09,0.23-0.29,0.59-0.77,0.59c-0.48,0-0.71-0.36-0.78-0.6l-6.17-21.75c-0.17-0.64-0.69-1.25-1.53-1.25l0,0h-9.16
	c-0.87,0-1.65,0.58-1.65,1.78c0,0.6,12.19,38.03,12.29,38.25c0.17,0.37,0.6,0.97,1.48,0.97h10.55c0.64,0,1.26-0.38,1.52-1.1
	L60.62,34.22z"/>
<path class="st1" d="M100.29,71.61c0-0.72,0-24.65,0-24.65c0-5.68-0.85-8.63-2.79-11.34c-1.96-2.75-6.21-4.8-11.91-4.8
	c-2.07,0-6.19,0.71-9.42,3.68V18.16c0-0.84-0.7-1.61-1.63-1.61c0,0-8.22,0-8.23,0c-1.01,0-1.61,0.85-1.61,1.61
	c0,0.17,0,53.45,0,53.45c0,0.77,0.58,1.64,1.57,1.64h8.24c0.97,0,1.65-0.77,1.65-1.64V47.94c0-4.23,2.6-7.2,6.36-7.2
	c3.3,0,6.32,2.64,6.32,7.2V71.6c0,1.04,0.77,1.64,1.56,1.64c0.15,0,7.16,0,8.24,0C99.73,73.25,100.29,72.33,100.29,71.61z"/>
<path class="st1" d="M138.61,41.2c0-2.88-3.5-10.33-16.41-10.33c-15.58,0-16.74,9.23-16.74,11.97c0,7.57,5.58,10.4,12.54,12.52
	c6.34,1.93,10.13,3.68,10.13,6.07c0,3.77-3.67,4.11-5.72,4.11c-4.07,0-6.53-2.73-7.12-4.9c-0.34-1.25-1.14-1.42-1.63-1.42
	l-7.53,0.53c-0.96,0.07-1.41,1.22-1.41,1.64c0,4.95,5.75,13.27,17.74,13.27c13.69,0,17.72-8.41,17.72-13.24
	c0-8.88-6.01-11.12-13.03-13.24c-5.49-1.66-10.39-3.08-10.39-5.68c0-0.95,0.03-3.55,5.39-3.55c3,0,5.99,0.91,6.63,3.21
	c0.25,0.89,1.1,1.21,1.57,1.2c0.91-0.02,6.73-0.46,6.73-0.46C137.79,42.85,138.6,42.42,138.61,41.2z"/>
<path class="st2" d="M187.21,69.63c-0.93,0-1.81,0.21-2.61,0.58c-0.02-0.19-0.05-0.38-0.09-0.57c-0.95-5.89-6.05-10.39-12.21-10.39
	c-6.84,0-12.38,5.54-12.38,12.38s5.54,12.38,12.38,12.38c3.96,0,7.48-1.87,9.75-4.77c1.11,1.67,3,2.77,5.16,2.77
	c3.42,0,6.19-2.77,6.19-6.19C193.4,72.4,190.63,69.63,187.21,69.63z"/>
<path class="st3" d="M198.71,68.59c0,3.31-2.26,6.1-5.32,6.91c-0.58,0.15-8.04-2.12-8.78-5.29c-0.12-0.52-0.18-1.06-0.18-1.62
	c0-3.95,3.2-7.14,7.14-7.14C195.51,61.45,198.71,64.65,198.71,68.59z"/>
<ellipse transform="matrix(1 -6.389467e-03 6.389467e-03 1 -0.3987 1.2898)" class="st4" cx="201.67" cy="63.04" rx="8.57" ry="8.57"/>
<path class="st5" d="M193.39,75.49c-0.17-3.27-2.87-5.86-6.17-5.86c-0.93,0-1.81,0.21-2.6,0.58c0.73,3.16,3.57,5.52,6.95,5.52
	C192.2,75.73,192.8,75.65,193.39,75.49z"/>
<path class="st3" d="M205,52.98c0,1.84-1.49,3.33-3.33,3.33s-3.33-1.49-3.33-3.33c0-1.84,1.49-3.33,3.33-3.33S205,51.14,205,52.98z"
	/>
<path class="st6" d="M199.02,16.82c-3.62,0-6.92,1.36-9.44,3.58c-0.59-0.54-1.38-0.89-2.24-0.89c-1.84,0-3.33,1.49-3.33,3.33
	c0,1.27,0.72,2.36,1.77,2.93c-0.67,1.65-1.04,3.44-1.04,5.33c0,7.89,6.4,14.28,14.28,14.28c7.89,0,14.28-6.4,14.28-14.28
	C213.3,23.22,206.91,16.82,199.02,16.82z"/>
<path class="st7" d="M162.21,64.45c1.82-2.25,1.47-5.54-0.77-7.36c-2.24-1.82-5.54-1.48-7.36,0.77s-1.47,5.55,0.77,7.36
	C157.09,67.04,160.39,66.7,162.21,64.45"/>
<path class="st8" d="M193.22,61.65c-0.07,0.45-0.12,0.91-0.12,1.38c0,3.54,2.15,6.58,5.21,7.89c0.26-0.73,0.4-1.51,0.4-2.33
	C198.71,65.22,196.36,62.4,193.22,61.65z"/>
<path class="st8" d="M201.66,54.47c-0.95,0-1.85,0.16-2.71,0.44c0.6,0.85,1.59,1.4,2.71,1.4c1.12,0,2.1-0.56,2.71-1.4
	C203.53,54.63,202.61,54.47,201.66,54.47z"/>
<path class="st9" d="M185.78,25.77c0.47,0.25,0.99,0.4,1.56,0.4c1.84,0,3.33-1.49,3.33-3.33c0-0.97-0.42-1.84-1.09-2.45
	C187.93,21.86,186.62,23.69,185.78,25.77z"/>
<path class="st1" d="M168.68,16.49c-1.77,0-3.33,0.88-4.28,2.22c-1.75-1.3-3.9-2.08-6.25-2.08c-5.78,0-10.47,4.69-10.47,10.47
	s4.69,10.47,10.47,10.47c5.78,0,10.47-4.69,10.47-10.47c0-0.05-0.01-0.09-0.01-0.13c0.02,0,0.04,0,0.06,0
	c2.89,0,5.23-2.34,5.23-5.23C173.92,18.83,171.58,16.49,168.68,16.49z"/>
<path class="st1" d="M150.26,43.49c-1.66-0.79-3.65-0.08-4.44,1.58s-0.09,3.65,1.57,4.44c1.66,0.79,3.65,0.08,4.45-1.58
	C152.62,46.27,151.92,44.28,150.26,43.49z"/>
<path class="st1" d="M178.59,24.4c-0.89,0-1.62,0.73-1.62,1.62s0.73,1.62,1.62,1.62s1.62-0.73,1.62-1.62
	C180.21,25.12,179.49,24.4,178.59,24.4z"/>
<path class="st1" d="M200.85,74.72c-0.89,0-1.62,0.73-1.62,1.62s0.73,1.62,1.62,1.62c0.89,0,1.62-0.73,1.62-1.62
	C202.47,75.44,201.74,74.72,200.85,74.72z"/>
</svg>
